<?xml version="1.0" encoding="utf-8"?>
<!-- Svg Vector Icons : http://www.onlinewebfonts.com/icon -->
<!DOCTYPE svg PUBLIC "-//W3C//DTD SVG 1.1//EN" "http://www.w3.org/Graphics/SVG/1.1/DTD/svg11.dtd">
<svg version="1.1" xmlns="http://www.w3.org/2000/svg" xmlns:xlink="http://www.w3.org/1999/xlink" x="0px" y="0px" viewBox="0 0 1000 1000" enable-background="new 0 0 1000 1000" xml:space="preserve">
<metadata> Svg Vector Icons : http://www.onlinewebfonts.com/icon </metadata>
<g><path d="M979.7,190.5H846.9c-5.7,0-10.3,4.5-10.3,10v599c0,5.5,4.6,10,10.3,10h132.8c5.7,0,10.3-4.5,10.3-10v-599C990,195,985.3,190.5,979.7,190.5z M526.2,190.5H20.3c-5.7,0-10.3,4.5-10.3,10v599c0,5.5,4.6,10,10.3,10h132.8c5.7,0,10.3-4.5,10.3-10V329.4c0-5.4,4.6-9.9,10.3-9.9h286.2c80.5,0,103.3,60.9,103.3,100.2v379.8c0,5.5,4.6,10,10.3,10h132.7c5.7,0,10.3-4.5,10.3-10V374.6c0-35.1-4.3-85.5-50-129.8C618.7,198.5,575,190.5,526.2,190.5z M433.2,429.1H293.7c-5.7,0-10.3,4.5-10.3,10v360.5c0,5.5,4.7,10,10.3,10h139.5c5.6,0,10.3-4.5,10.3-10V439C443.5,433.6,438.9,429.1,433.2,429.1z"/></g>
</svg>