<svg xmlns="http://www.w3.org/2000/svg" viewBox="0 0 2078.3 304.3" style="enable-background:new 0 0 2078.3 304.3" xml:space="preserve"><path d="M1139.6 141.3s-20.2-12.5-32.7-17.3c0 0-38.7-17.9-46.4-26.5 0 0-15.1-14.2-6.3-30.7 0 0 3.7-10.8 19.6-10.8 0 0 20.8 1.1 20.8 18.2v24.1h74.4l-.1-35.4s5.7-58-87.6-60.6c0 0-73.4-4.8-94.4 34.7 0 0-8.3 8.8-8.3 39.5v22.2s-.8 25.6 12.2 42.1c0 0 7.4 10.8 25.6 22.7 0 0 37 19.9 59.2 31.3 0 0 22.4 12.8 19.5 33.1 0 0-1.8 20.9-23.5 20 0 0-19.8-.9-19.8-21.4v-24h-79.2v34.9s-2.2 66.8 99.6 66.8c0 0 97.3 2 101.8-68.5v-28.4s3.5-43.2-34.4-66zM758.9 10.5 734 166.6h-5.8L704.4 11.9H580.2L574 294.5h73.6l.9-212.9h5.8l39 212.9h77.4L809 81.7h5.1l1.8 212.8h73.9l-8-284H758.9zm-437.8 1.2-48.9 282.5h79.2l29-219h6.5l29 219H495L446 11.7H321.1zm1661.4 125.7v41.7h20.3v44.7c0 21.9-18.7 22.3-18.7 22.3-22.7 0-21.9-20.8-21.9-20.8V70.6c0-15.9 20.2-16.8 20.2-16.8 19.4 0 19.5 19 19.5 19v23.5h74.6c2.4-45.9-6.7-57-6.7-57C2051.3-2.2 1981.3 0 1981.3 0c-107.5 0-95.6 82.5-95.6 82.5v149.6c2.3 77.4 108.2 69.5 110 69.4 47.1-5.2 61.3-20.2 61.3-20.2 13.1-9.7 16.5-23.2 16.5-23.2 3.7-7.8 4.7-32.9 4.7-32.9v-87.9l-95.7.1zm-247.1 46h-3.2l-75.7-172.8H1566v283.9h73.7l-4.4-172.8h3.3l78.4 172.8h87.8v-284h-74.6l5.2 172.9zm-349.2 40.4s1.1 23.3-20.5 23.3c0 0-22.7 1.2-22.7-22.7l-.2-213.6H1262v211.9s-8.3 80.2 104.9 80.2c0 0 98.4 1.2 98.4-76.5V10.8h-79l-.1 213zM167 141.3s-20.2-12.5-32.7-17.3c0 0-38.7-17.9-46.4-26.5 0 0-15.1-14.2-6.2-30.7 0 0 3.7-10.8 19.6-10.8 0 0 20.8 1.1 20.8 18.2v24.1h74.4l-.1-35.4s5.7-58-87.6-60.6c0 0-7-.5-17.3.1 0 0-56.5 3-76.7 34-.1.2-.3.4-.4.6 0 0-8.2 8.8-8.2 39.5v22.2s-.9 25.6 12.2 42.1c0 0 7.4 10.8 25.6 22.7 0 0 37 19.9 59.2 31.3 0 0 22.4 12.8 19.5 33.1 0 0-1.8 20.9-23.4 20 0 0-19.8-.9-19.8-21.4v-24.1H0v35s-2.2 66.8 99.6 66.8c0 0 97.3 2 101.9-68.5v-28.4s3.4-43.2-34.5-66z" style="fill-rule:evenodd;clip-rule:evenodd"/></svg>